<mxfile host="app.diagrams.net" agent="Mozilla/5.0 (Windows NT 10.0; Win64; x64; rv:143.0) Gecko/20100101 Firefox/143.0" version="28.2.5">
  <diagram name="Página-1" id="PvzrbLEDW2CIjbgFic3R">
    <mxGraphModel dx="872" dy="439" grid="1" gridSize="10" guides="1" tooltips="1" connect="1" arrows="1" fold="1" page="1" pageScale="1" pageWidth="827" pageHeight="1169" math="0" shadow="0">
      <root>
        <mxCell id="0" />
        <mxCell id="1" parent="0" />
        <mxCell id="Shn0OffpaIfO5DHOkEOz-1" value="Cadastro de Candidato" style="shape=umlFrame;whiteSpace=wrap;html=1;pointerEvents=0;width=90;height=30;" vertex="1" parent="1">
          <mxGeometry width="840" height="480" as="geometry" />
        </mxCell>
        <mxCell id="Shn0OffpaIfO5DHOkEOz-2" value="" style="ellipse;html=1;shape=startState;fillColor=#000000;strokeColor=#ff0000;" vertex="1" parent="1">
          <mxGeometry x="90" y="50" width="30" height="30" as="geometry" />
        </mxCell>
        <mxCell id="Shn0OffpaIfO5DHOkEOz-3" value="" style="edgeStyle=orthogonalEdgeStyle;html=1;verticalAlign=bottom;endArrow=open;endSize=8;strokeColor=light-dark(#000000, #ff9090);rounded=0;" edge="1" source="Shn0OffpaIfO5DHOkEOz-2" parent="1">
          <mxGeometry relative="1" as="geometry">
            <mxPoint x="105" y="140" as="targetPoint" />
          </mxGeometry>
        </mxCell>
        <mxCell id="Shn0OffpaIfO5DHOkEOz-7" style="edgeStyle=orthogonalEdgeStyle;rounded=0;orthogonalLoop=1;jettySize=auto;html=1;entryX=0;entryY=0.5;entryDx=0;entryDy=0;" edge="1" parent="1" source="Shn0OffpaIfO5DHOkEOz-4">
          <mxGeometry relative="1" as="geometry">
            <mxPoint x="250" y="160" as="targetPoint" />
          </mxGeometry>
        </mxCell>
        <mxCell id="Shn0OffpaIfO5DHOkEOz-4" value="Candidato acessa o site de cadastro" style="rounded=1;whiteSpace=wrap;html=1;arcSize=40;fontColor=#000000;fillColor=#ffffc0;strokeColor=#ff0000;" vertex="1" parent="1">
          <mxGeometry x="45" y="140" width="120" height="40" as="geometry" />
        </mxCell>
        <mxCell id="Shn0OffpaIfO5DHOkEOz-15" style="edgeStyle=orthogonalEdgeStyle;rounded=0;orthogonalLoop=1;jettySize=auto;html=1;entryX=0;entryY=0.5;entryDx=0;entryDy=0;" edge="1" parent="1" source="Shn0OffpaIfO5DHOkEOz-11" target="Shn0OffpaIfO5DHOkEOz-12">
          <mxGeometry relative="1" as="geometry" />
        </mxCell>
        <mxCell id="Shn0OffpaIfO5DHOkEOz-11" value="Candidato tenta criar conta de candidato" style="rounded=1;whiteSpace=wrap;html=1;arcSize=40;fontColor=#000000;fillColor=#ffffc0;strokeColor=#ff0000;" vertex="1" parent="1">
          <mxGeometry x="250" y="140" width="120" height="40" as="geometry" />
        </mxCell>
        <mxCell id="Shn0OffpaIfO5DHOkEOz-19" style="edgeStyle=orthogonalEdgeStyle;rounded=0;orthogonalLoop=1;jettySize=auto;html=1;" edge="1" parent="1" source="Shn0OffpaIfO5DHOkEOz-12" target="Shn0OffpaIfO5DHOkEOz-18">
          <mxGeometry relative="1" as="geometry" />
        </mxCell>
        <mxCell id="Shn0OffpaIfO5DHOkEOz-12" value="Candidato já possui conta de eleitor" style="rhombus;whiteSpace=wrap;html=1;fontColor=#000000;fillColor=#ffffc0;strokeColor=#ff0000;" vertex="1" parent="1">
          <mxGeometry x="430" y="130" width="130" height="60" as="geometry" />
        </mxCell>
        <mxCell id="Shn0OffpaIfO5DHOkEOz-13" value="Não" style="edgeStyle=orthogonalEdgeStyle;html=1;align=left;verticalAlign=bottom;endArrow=open;endSize=8;strokeColor=#000000;rounded=0;" edge="1" source="Shn0OffpaIfO5DHOkEOz-12" parent="1">
          <mxGeometry x="-1" relative="1" as="geometry">
            <mxPoint x="610" y="160" as="targetPoint" />
          </mxGeometry>
        </mxCell>
        <mxCell id="Shn0OffpaIfO5DHOkEOz-16" value="Cria conta de eleitor" style="rounded=1;whiteSpace=wrap;html=1;arcSize=40;fontColor=#000000;fillColor=#ffffc0;strokeColor=#ff0000;" vertex="1" parent="1">
          <mxGeometry x="610" y="140" width="120" height="40" as="geometry" />
        </mxCell>
        <mxCell id="Shn0OffpaIfO5DHOkEOz-23" style="edgeStyle=orthogonalEdgeStyle;rounded=0;orthogonalLoop=1;jettySize=auto;html=1;" edge="1" parent="1" source="Shn0OffpaIfO5DHOkEOz-18" target="Shn0OffpaIfO5DHOkEOz-20">
          <mxGeometry relative="1" as="geometry" />
        </mxCell>
        <mxCell id="Shn0OffpaIfO5DHOkEOz-18" value="Solicita as informações do Candidato" style="rounded=1;whiteSpace=wrap;html=1;arcSize=40;fontColor=#000000;fillColor=#ffffc0;strokeColor=#ff0000;" vertex="1" parent="1">
          <mxGeometry x="435" y="240" width="120" height="50" as="geometry" />
        </mxCell>
        <mxCell id="Shn0OffpaIfO5DHOkEOz-25" value="Sim" style="edgeStyle=orthogonalEdgeStyle;rounded=0;orthogonalLoop=1;jettySize=auto;html=1;entryX=0.5;entryY=0;entryDx=0;entryDy=0;" edge="1" parent="1" source="Shn0OffpaIfO5DHOkEOz-20" target="Shn0OffpaIfO5DHOkEOz-24">
          <mxGeometry relative="1" as="geometry" />
        </mxCell>
        <mxCell id="Shn0OffpaIfO5DHOkEOz-26" value="Não" style="edgeStyle=orthogonalEdgeStyle;rounded=0;orthogonalLoop=1;jettySize=auto;html=1;entryX=1;entryY=0.5;entryDx=0;entryDy=0;" edge="1" parent="1" source="Shn0OffpaIfO5DHOkEOz-20" target="Shn0OffpaIfO5DHOkEOz-18">
          <mxGeometry relative="1" as="geometry">
            <Array as="points">
              <mxPoint x="650" y="350" />
              <mxPoint x="650" y="265" />
            </Array>
          </mxGeometry>
        </mxCell>
        <mxCell id="Shn0OffpaIfO5DHOkEOz-20" value="Valida as informações do Candidato" style="rhombus;whiteSpace=wrap;html=1;fontColor=#000000;fillColor=#ffffc0;strokeColor=#ff0000;" vertex="1" parent="1">
          <mxGeometry x="430" y="320" width="130" height="60" as="geometry" />
        </mxCell>
        <mxCell id="Shn0OffpaIfO5DHOkEOz-24" value="" style="ellipse;html=1;shape=endState;fillColor=#000000;strokeColor=#ff0000;" vertex="1" parent="1">
          <mxGeometry x="480" y="430" width="30" height="30" as="geometry" />
        </mxCell>
      </root>
    </mxGraphModel>
  </diagram>
</mxfile>
